# Blender 4.5.4 LTS
# www.blender.org
mtllib Square Bipyramid.mtl
o Plane
v -1.000000 0.000000 1.000000
v 1.000000 0.000000 1.000000
v -1.000000 0.000000 -1.000000
v 1.000000 0.000000 -1.000000
v 0.000000 2.000000 0.000000
v -0.000000 -2.000000 0.000000
vn 0.8944 -0.4472 -0.0000
vn -0.0000 0.4472 0.8944
vn -0.8944 0.4472 -0.0000
vn -0.0000 0.4472 -0.8944
vn 0.8944 0.4472 -0.0000
vn -0.8944 -0.4472 -0.0000
vn -0.0000 -0.4472 0.8944
vn -0.0000 -0.4472 -0.8944
vt 0.000000 0.000000
s 0
f 2/1/1 6/1/1 4/1/1
f 2/1/2 5/1/2 1/1/2
f 3/1/3 1/1/3 5/1/3
f 5/1/4 4/1/4 3/1/4
f 4/1/5 5/1/5 2/1/5
f 1/1/6 3/1/6 6/1/6
f 6/1/7 2/1/7 1/1/7
f 3/1/8 4/1/8 6/1/8
